<svg width="472" height="192" viewBox="0 0 472 192" fill="none" xmlns="http://www.w3.org/2000/svg">
<path d="M447.278 187.266H447.778V186.766V148.588H470.999H471.499V148.088V120.421V119.921H470.999H447.778V5.23514V4.73514H447.278H414.521H414.28L414.13 4.92371L326.023 115.592L325.914 115.729V115.904V148.088V148.588H326.414H410.067V186.766V187.266H410.567H447.278ZM410.067 50.1841V119.921H356.515L410.067 50.1841Z" stroke="black"/>
<path d="M161.225 96.1412C161.225 125.992 167.945 149.828 180.459 166.212C192.987 182.615 211.283 191.5 234.3 191.5C257.172 191.5 275.468 182.829 288.033 166.532C300.583 150.252 307.375 126.415 307.375 96.1412C307.375 66.1493 300.654 42.2433 288.14 25.8232C275.613 9.3854 257.317 0.5 234.3 0.5C211.427 0.5 193.131 9.17115 180.566 25.5038C168.016 41.8189 161.225 65.7262 161.225 96.1412ZM269.099 96.1412C269.099 116.855 265.996 132.85 260.088 143.648C254.198 154.415 245.529 160.01 234.3 160.01C223.073 160.01 214.332 154.277 208.369 143.436C202.391 132.566 199.218 116.57 199.218 96.1412C199.218 75.2853 202.321 59.2205 208.264 48.3876C214.188 37.5873 222.926 31.9904 234.3 31.9904C245.384 31.9904 254.055 37.6516 259.982 48.4929C265.925 59.3626 269.099 75.4288 269.099 96.1412Z" stroke="black"/>
<path d="M121.864 187.266H122.364V186.766V148.588H145.585H146.085V148.088V120.421V119.921H145.585H122.364V5.23514V4.73514H121.864H89.1066H88.8656L88.7155 4.92371L0.608828 115.592L0.5 115.729V115.904V148.088V148.588H1H84.6531V186.766V187.266H85.1531H121.864ZM84.6531 50.1841V119.921H31.1009L84.6531 50.1841Z" stroke="black"/>
</svg>
