<svg width="102" height="30" viewBox="0 0 102 30" fill="none" xmlns="http://www.w3.org/2000/svg">
<path d="M90.8012 29.5981V18.3069L84.7397 0H89.8402L93.5362 11.7296L97.0104 0H102L96.0125 18.3069V29.5981H90.8012Z" fill="black"/>
<path d="M72.9091 29.5981V0H78.3792V25.8709H85.6233V29.5981H72.9091Z" fill="black"/>
<path d="M56.1735 29.5981V26.1267L64.2308 3.72716H56.6171V0H69.7378V2.7771L61.3849 25.8709H69.7748V29.5981H56.1735Z" fill="black"/>
<path d="M40.4728 29.5981V26.1267L48.53 3.72716H40.9163V0H54.0371V2.7771L45.6841 25.8709H54.074V29.5981H40.4728Z" fill="black"/>
<path d="M28.7784 30C26.5609 30 24.8361 29.5981 23.6041 28.7942C22.3721 27.9903 21.522 26.8453 21.0538 25.3593C20.5857 23.8733 20.3516 22.095 20.3516 20.0244V0H25.6738V20.6456C25.6738 21.5713 25.7354 22.4482 25.8586 23.2765C25.9818 24.0804 26.2652 24.7381 26.7087 25.2497C27.1768 25.7369 27.8668 25.9805 28.7784 25.9805C29.7394 25.9805 30.4293 25.7369 30.8482 25.2497C31.2917 24.7381 31.5751 24.0804 31.6983 23.2765C31.8461 22.4482 31.92 21.5713 31.92 20.6456V0H37.2053V20.0244C37.2053 22.095 36.9712 23.8733 36.5031 25.3593C36.0349 26.8453 35.1848 27.9903 33.9528 28.7942C32.7455 29.5981 31.0207 30 28.7784 30Z" fill="black"/>
<path d="M0 29.5981V0H7.35502C8.68557 0 9.88061 0.121803 10.9401 0.36541C12.0243 0.609015 12.9483 1.02314 13.7121 1.6078C14.5006 2.16809 15.1043 2.93545 15.5231 3.90987C15.942 4.88429 16.1515 6.1145 16.1515 7.60049C16.1515 8.79416 15.979 9.8173 15.634 10.6699C15.3137 11.5225 14.8332 12.2046 14.1926 12.7162C13.552 13.2034 12.7512 13.5323 11.7902 13.7028C12.9729 13.8977 13.9462 14.3118 14.71 14.9452C15.4985 15.5542 16.0775 16.3581 16.4471 17.3569C16.8414 18.3557 17.0385 19.5615 17.0385 20.9744C17.0385 22.3873 16.8537 23.6419 16.4841 24.7381C16.1391 25.81 15.6094 26.7113 14.8948 27.4421C14.2049 28.1486 13.3302 28.6845 12.2707 29.0499C11.2358 29.4153 10.0161 29.5981 8.61165 29.5981H0ZM5.47006 25.7978H7.53981C9.19069 25.7978 10.3118 25.408 10.9032 24.6285C11.4945 23.8246 11.7902 22.5944 11.7902 20.9379C11.7902 19.7442 11.6424 18.782 11.3467 18.0512C11.0756 17.296 10.6075 16.7357 9.94221 16.3703C9.30157 16.0049 8.43917 15.8222 7.35502 15.8222H5.47006V25.7978ZM5.47006 12.095H7.31805C8.40221 12.095 9.23997 11.9367 9.83133 11.62C10.4227 11.3033 10.8292 10.8161 11.051 10.1583C11.2974 9.50061 11.4206 8.67235 11.4206 7.67357C11.4206 6.62607 11.2358 5.82217 10.8662 5.26188C10.5212 4.67722 9.99149 4.28746 9.27693 4.09257C8.56237 3.87333 7.65069 3.7637 6.5419 3.7637H5.47006V12.095Z" fill="black"/>
</svg>
