<svg width="95" height="28" viewBox="0 0 95 28" fill="none" xmlns="http://www.w3.org/2000/svg">
<path d="M84.5697 27.6248V17.0865L78.9243 0H83.6747L87.117 10.9476L90.3528 0H95L89.4234 17.0865V27.6248H84.5697Z" fill="white"/>
<path d="M67.9055 27.6248V0H73.0002V24.1462H79.7472V27.6248H67.9055Z" fill="white"/>
<path d="M52.3185 27.6248V24.3849L59.8228 3.47869H52.7316V0H64.9519V2.59196L57.1722 24.1462H64.9863V27.6248H52.3185Z" fill="white"/>
<path d="M37.6953 27.6248V24.3849L45.1996 3.47869H38.1083V0H50.3286V2.59196L42.549 24.1462H50.3631V27.6248H37.6953Z" fill="white"/>
<path d="M26.8035 28C24.7381 28 23.1316 27.6249 21.9842 26.8745C20.8367 26.1242 20.045 25.0556 19.609 23.6687C19.1729 22.2818 18.9549 20.622 18.9549 18.6894V0H23.9119V19.2692C23.9119 20.1332 23.9693 20.9517 24.084 21.7247C24.1988 22.475 24.4627 23.0889 24.8757 23.5664C25.3118 24.0211 25.9543 24.2485 26.8035 24.2485C27.6985 24.2485 28.341 24.0211 28.7312 23.5664C29.1442 23.0889 29.4082 22.475 29.5229 21.7247C29.6606 20.9517 29.7294 20.1332 29.7294 19.2692V0H34.652V18.6894C34.652 20.622 34.434 22.2818 33.9979 23.6687C33.5619 25.0556 32.7702 26.1242 31.6227 26.8745C30.4982 27.6249 28.8918 28 26.8035 28Z" fill="white"/>
<path d="M0 27.6248V0H6.85026C8.0895 0 9.20253 0.113683 10.1893 0.341049C11.1991 0.568414 12.0597 0.954934 12.7711 1.50061C13.5055 2.02355 14.0677 2.73975 14.4578 3.64921C14.848 4.55867 15.043 5.70686 15.043 7.09379C15.043 8.20788 14.8824 9.16281 14.5611 9.95859C14.2628 10.7544 13.8153 11.391 13.2186 11.8685C12.6219 12.3232 11.8761 12.6301 10.9811 12.7893C12.0826 12.9712 12.9891 13.3577 13.7005 13.9488C14.4349 14.5173 14.9742 15.2676 15.3184 16.1998C15.6856 17.132 15.8692 18.2574 15.8692 19.5761C15.8692 20.8948 15.6971 22.0658 15.3528 23.0889C15.0316 24.0893 14.5382 24.9306 13.8726 25.6127C13.2301 26.272 12.4154 26.7722 11.4286 27.1133C10.4647 27.4543 9.32874 27.6248 8.02065 27.6248H0ZM5.09466 24.078H7.02238C8.55996 24.078 9.60413 23.7142 10.1549 22.9866C10.7057 22.2363 10.9811 21.0881 10.9811 19.542C10.9811 18.4279 10.8434 17.5298 10.568 16.8477C10.3156 16.1429 9.87952 15.62 9.2599 15.2789C8.66323 14.9379 7.86001 14.7674 6.85026 14.7674H5.09466V24.078ZM5.09466 11.2887H6.81584C7.82559 11.2887 8.60585 11.1409 9.15663 10.8453C9.7074 10.5497 10.0861 10.095 10.2926 9.48112C10.5221 8.86724 10.6368 8.0942 10.6368 7.162C10.6368 6.18433 10.4647 5.43403 10.1205 4.91109C9.7992 4.36541 9.3058 4.00162 8.64028 3.81973C7.97476 3.61511 7.12565 3.51279 6.09294 3.51279H5.09466V11.2887Z" fill="white"/>
</svg>
