<svg width="20" height="21" viewBox="0 0 20 21" fill="none" xmlns="http://www.w3.org/2000/svg">
<path fill-rule="evenodd" clip-rule="evenodd" d="M3.75474 9.26542C2.8285 8.67599 2.8285 7.32387 3.75475 6.73444L8.1224 3.95502C9.26889 3.22544 10.7341 3.22544 11.8805 3.95502L16.2482 6.73444C17.1744 7.32387 17.1744 8.67599 16.2482 9.26543L11.8805 12.0448C10.734 12.7744 9.26888 12.7744 8.1224 12.0448L3.75474 9.26542ZM3.21787 5.89078C1.67413 6.87316 1.67412 9.1267 3.21787 10.1091L3.83206 10.4999L3.21787 10.8908C1.67412 11.8732 1.67412 14.1267 3.21787 15.1091L7.58552 17.8885C9.05957 18.8265 10.9434 18.8265 12.4174 17.8885L16.7851 15.1091C18.3288 14.1267 18.3288 11.8732 16.7851 10.8908L16.1709 10.4999L16.7851 10.1091C18.3288 9.1267 18.3288 6.87316 16.7851 5.89078L12.4174 3.11136C10.9434 2.17333 9.05958 2.17333 7.58553 3.11136L3.21787 5.89078ZM15.2396 11.0926L12.4174 12.8885C10.9434 13.8265 9.05957 13.8265 7.58552 12.8885L4.76337 11.0926L3.75475 11.7344C2.8285 12.3239 2.8285 13.676 3.75474 14.2654L8.1224 17.0448C9.26888 17.7744 10.734 17.7744 11.8805 17.0448L16.2482 14.2654C17.1744 13.676 17.1744 12.3239 16.2482 11.7344L15.2396 11.0926Z" fill="black"/>
</svg>
