<svg width="11" height="17" viewBox="0 0 11 17" fill="none" xmlns="http://www.w3.org/2000/svg">
<path d="M6.42214 6.38191H10.2221L9.79991 8.0708H6.42214V15.6708H4.73325V8.0708H1.35547V6.38191H4.73325V4.80111C4.73325 3.29546 4.89031 2.74911 5.18418 2.19853C5.47214 1.65454 5.91699 1.20969 6.46098 0.921728C7.01156 0.627861 7.55791 0.470795 9.06356 0.470795C9.50436 0.470795 9.89111 0.513017 10.2221 0.597461V2.15968H9.06356C7.94551 2.15968 7.6052 2.22555 7.25813 2.41133C7.00142 2.54813 6.81058 2.73897 6.67378 2.99568C6.488 3.34275 6.42214 3.68306 6.42214 4.80111V6.38191Z" fill="black" stroke="black" stroke-width="0.8"/>
</svg>
