<svg width="17" height="16" viewBox="0 0 17 16" fill="none" xmlns="http://www.w3.org/2000/svg">
<path d="M12.8181 3.07129C12.6349 3.07129 12.4558 3.12561 12.3035 3.2274C12.1512 3.32917 12.0324 3.47383 11.9623 3.64308C11.8923 3.81233 11.8739 3.99857 11.9097 4.17824C11.9454 4.35791 12.0336 4.52296 12.1631 4.6525C12.2927 4.78203 12.4577 4.87025 12.6374 4.906C12.8171 4.94173 13.0034 4.92339 13.1725 4.85328C13.3418 4.78318 13.4864 4.66446 13.5882 4.51214C13.69 4.35982 13.7444 4.18073 13.7444 3.99754C13.7444 3.75188 13.6468 3.51629 13.4731 3.34258C13.2993 3.16888 13.0638 3.07129 12.8181 3.07129ZM16.3687 4.93923C16.3537 4.2988 16.2338 3.66517 16.0137 3.06357C15.8174 2.54884 15.5119 2.08274 15.1183 1.69735C14.7361 1.30171 14.2689 0.998169 13.7521 0.809698C13.1521 0.582891 12.5177 0.4602 11.8764 0.446917C11.0582 0.400604 10.7958 0.400604 8.69629 0.400604C6.59679 0.400604 6.33435 0.400604 5.51616 0.446917C4.87485 0.4602 4.24052 0.582891 3.64051 0.809698C3.12465 1.00008 2.65786 1.30336 2.27429 1.69735C1.87865 2.07957 1.5751 2.54676 1.38663 3.06357C1.15983 3.66359 1.03714 4.29791 1.02385 4.93923C0.977539 5.75742 0.977539 6.01985 0.977539 8.11935C0.977539 10.2189 0.977539 10.4813 1.02385 11.2995C1.03714 11.9408 1.15983 12.5751 1.38663 13.1751C1.5751 13.692 1.87865 14.1591 2.27429 14.5414C2.65786 14.9353 3.12465 15.2386 3.64051 15.429C4.24052 15.6558 4.87485 15.7785 5.51616 15.7918C6.33435 15.8381 6.59679 15.8381 8.69629 15.8381C10.7958 15.8381 11.0582 15.8381 11.8764 15.7918C12.5177 15.7785 13.1521 15.6558 13.7521 15.429C14.2689 15.2406 14.7361 14.937 15.1183 14.5414C15.5137 14.1574 15.8195 13.6909 16.0137 13.1751C16.2338 12.5735 16.3537 11.9399 16.3687 11.2995C16.3687 10.4813 16.415 10.2189 16.415 8.11935C16.415 6.01985 16.415 5.75742 16.3687 4.93923ZM14.9794 11.2069C14.9737 11.6968 14.885 12.1823 14.7169 12.6425C14.5936 12.9785 14.3957 13.282 14.138 13.5302C13.8876 13.7853 13.5847 13.9828 13.2504 14.1091C12.7901 14.2772 12.3047 14.3659 11.8147 14.3715C11.0428 14.4101 10.7572 14.4179 8.72716 14.4179C6.69713 14.4179 6.41154 14.4179 5.63966 14.3715C5.13092 14.3811 4.62434 14.3027 4.14223 14.14C3.82251 14.0073 3.5335 13.8102 3.29316 13.5611C3.03697 13.3131 2.84149 13.0093 2.72198 12.6734C2.53353 12.2066 2.429 11.7101 2.41323 11.2069C2.41323 10.435 2.36691 10.1494 2.36691 8.11935C2.36691 6.08932 2.36691 5.80373 2.41323 5.03185C2.41668 4.53095 2.50813 4.03455 2.68338 3.56529C2.81927 3.23949 3.02784 2.94907 3.29316 2.71623C3.52767 2.45084 3.81749 2.24005 4.14223 2.09873C4.61272 1.92895 5.10861 1.84021 5.60879 1.83629C6.38066 1.83629 6.66626 1.78998 8.69629 1.78998C10.7263 1.78998 11.0119 1.78998 11.7838 1.83629C12.2738 1.84191 12.7592 1.93065 13.2195 2.09873C13.5702 2.22891 13.885 2.44056 14.138 2.71623C14.391 2.95333 14.5886 3.24321 14.7169 3.56529C14.8885 4.03531 14.9773 4.5315 14.9794 5.03185C15.0179 5.80373 15.0257 6.08932 15.0257 8.11935C15.0257 10.1494 15.0179 10.435 14.9794 11.2069ZM8.69629 4.15964C7.91346 4.16116 7.14865 4.39469 6.49849 4.83071C5.84834 5.26674 5.34201 5.8857 5.0435 6.60937C4.74498 7.33305 4.66766 8.12898 4.82132 8.89658C4.97498 9.66418 5.35271 10.369 5.90679 10.922C6.46088 11.4751 7.16644 11.8514 7.93434 12.0035C8.70224 12.1557 9.49801 12.0768 10.2211 11.7769C10.9442 11.477 11.5622 10.9694 11.9969 10.3185C12.4317 9.66745 12.6637 8.90218 12.6637 8.11935C12.6648 7.59842 12.5628 7.08243 12.3636 6.60105C12.1646 6.11966 11.8722 5.6824 11.5035 5.3144C11.1348 4.9464 10.6969 4.65493 10.2152 4.45676C9.73341 4.25858 9.21722 4.1576 8.69629 4.15964ZM8.69629 10.6897C8.18792 10.6897 7.69098 10.5389 7.26828 10.2565C6.84559 9.97409 6.51614 9.57265 6.3216 9.10298C6.12706 8.63331 6.07615 8.1165 6.17533 7.6179C6.27452 7.1193 6.51931 6.66131 6.87878 6.30185C7.23825 5.94238 7.69624 5.69758 8.19484 5.5984C8.69344 5.49922 9.21025 5.55012 9.67992 5.74467C10.1496 5.93921 10.551 6.26866 10.8335 6.69134C11.1159 7.11404 11.2666 7.61099 11.2666 8.11935C11.2666 8.4569 11.2001 8.79113 11.071 9.10298C10.9418 9.41483 10.7525 9.69819 10.5138 9.93686C10.2751 10.1755 9.99176 10.3649 9.67992 10.4941C9.36807 10.6232 9.03384 10.6897 8.69629 10.6897Z" fill="black"/>
</svg>
