<svg width="16" height="11" viewBox="0 0 16 11" fill="none" xmlns="http://www.w3.org/2000/svg">
<path d="M15.0349 3.04936C15.0349 3.04936 14.8946 2.056 14.4628 1.61983C13.9161 1.04577 13.3048 1.04295 13.0245 1.00918C11.017 0.862854 8.00285 0.862854 8.00285 0.862854H7.99724C7.99724 0.862854 4.98313 0.862854 2.9756 1.00918C2.69522 1.04295 2.08398 1.04577 1.53724 1.61983C1.10545 2.056 0.968064 3.04936 0.968064 3.04936C0.968064 3.04936 0.822266 4.21718 0.822266 5.38219V6.47404C0.822266 7.63905 0.96526 8.80687 0.96526 8.80687C0.96526 8.80687 1.10545 9.8002 1.53444 10.2364C2.08118 10.8105 2.79896 10.7907 3.1186 10.8526C4.26816 10.9624 8.00004 10.9962 8.00004 10.9962C8.00004 10.9962 11.017 10.9905 13.0245 10.8471C13.3048 10.8133 13.9161 10.8105 14.4628 10.2364C14.8946 9.8002 15.0349 8.80687 15.0349 8.80687C15.0349 8.80687 15.1778 7.64186 15.1778 6.47404V5.38219C15.1778 4.21718 15.0349 3.04936 15.0349 3.04936ZM6.51683 7.79944V3.75005L10.3945 5.78179L6.51683 7.79944Z" fill="black"/>
</svg>
